/* XPM */
static char *_34bfd2048b24b548fdc6a9c5df0dea6emNzVPn6cQFGAQiY[] = {
/* columns rows colors chars-per-pixel */
"32 32 4 1 ",
"  c #22B14C",
". c #A8E61D",
"X c #FFC20E",
"o c #FFF200",
/* pixels */
"                                ",
"  ..                       ..   ",
"................................",
"................................",
"    ....     .....     ....     ",
"                                ",
"           XXXXXXXXX            ",
"          XXXXXXXXXXX           ",
"      ...XXXXXXXXXXXXX...       ",
"........XXXXXXXXXXXXXXX.........",
".......XXXXXXoooooXXXXXX........",
"...    XXXXoooooooooXXXX    ... ",
"      XXXXXoooooooooXXXXX       ",
"      XXXXoooooXoooooXXXX       ",
"......XXXXooooXXoooooXXXX.......",
"......XXXXoooooXoooooXXXX.......",
"......XXXXoooooXoooooXXXX.......",
"      XXXXooooXXXooooXXXX       ",
"      XXXXXoooooooooXXXXX       ",
"...    XXXXoooooooooXXXX    ... ",
".......XXXXXXoooooXXXXXX........",
"........XXXXXXXXXXXXXXX.........",
"      ...XXXXXXXXXXXXX...       ",
"          XXXXXXXXXXX           ",
"           XXXXXXXXX            ",
"                                ",
"    ....     .....     ....     ",
"................................",
"................................",
"  ..                       ..   ",
"                                ",
"                                "
};
