/* XPM */
static char *_e6897361e5b42f881ab5202319ccf44dSs3SCvFwXO2MRqr[] = {
/* columns rows colors chars-per-pixel */
"64 64 4 1 ",
"  c #105C25",
". c #22B14C",
"X c #FFC20E",
"o c #FFF200",
/* pixels */
"................................................................",
"................................................................",
"................................................................",
"..............        ...................        .............. ",
"                                                                ",
"                                                                ",
"                                                                ",
"                                                                ",
"...................     ...............     ....................",
"................................................................",
"................................................................",
"................................................................",
"............................       .............................",
"   .         ....                             ....         .    ",
"                       XXXXXXXXXXXXXXXXX                        ",
"                     XXXXXXXXXXXXXXXXXXXXX                      ",
"                    XXXXXXXXXXXXXXXXXXXXXXX                     ",
"       ...         XXXXXXXXXXXXXXXXXXXXXXXXX         ...       .",
"..................XXXXXXXXXXXXXXXXXXXXXXXXXXX...................",
".................XXXXXXXXoooooooooooooXXXXXXXX..................",
".................XXXXXXXoooooooooooooooXXXXXXX..................",
"................XXXXXXXoooooooooooooooooXXXXXXX.................",
"................XXXXXXoooooooooooooooooooXXXXXX.................",
"           .... XXXXXoooooooooooooooooooooXXXXX ....            ",
"                XXXXXoooooooooooooooooooooXXXXX                 ",
"                XXXXoooooooooooooooooooooooXXXX                 ",
"               XXXXXooooooooooXXXooooooooooXXXXX                ",
"........       XXXXXooooooooooXXXooooooooooXXXXX       .........",
"...............XXXXXooooooooXXXXXooooooooooXXXXX................",
"...............XXXXXooooooooXXXXXooooooooooXXXXX................",
"...............XXXXXooooooooXXXXXooooooooooXXXXX................",
"...............XXXXoooooooooooXXXoooooooooooXXXX................",
"...............XXXXXooooooooooXXXooooooooooXXXXX................",
"...............XXXXXooooooooooXXXooooooooooXXXXX................",
"...............XXXXXooooooooooXXXooooooooooXXXXX................",
"........       XXXXXooooooooXXXXXXXooooooooXXXXX       .........",
"               XXXXXooooooooXXXXXXXooooooooXXXXX                ",
"                XXXXooooooooXXXXXXXooooooooXXXX                 ",
"                XXXXXoooooooooooooooooooooXXXXX                 ",
"           .... XXXXXoooooooooooooooooooooXXXXX ....            ",
"................XXXXXXoooooooooooooooooooXXXXXX.................",
"................XXXXXXXoooooooooooooooooXXXXXXX.................",
".................XXXXXXXoooooooooooooooXXXXXXX..................",
".................XXXXXXXXoooooooooooooXXXXXXXX..................",
"..................XXXXXXXXXXXXXXXXXXXXXXXXXXX...................",
"       ...         XXXXXXXXXXXXXXXXXXXXXXXXX         ...       .",
"                    XXXXXXXXXXXXXXXXXXXXXXX                     ",
"                     XXXXXXXXXXXXXXXXXXXXX                      ",
"                       XXXXXXXXXXXXXXXXX                        ",
"   .         ....                             ....         .    ",
"............................       .............................",
"................................................................",
"................................................................",
"................................................................",
"...................     ...............     ....................",
"                                                                ",
"                                                                ",
"                                                                ",
"                                                                ",
"..............        ...................        .............. ",
"................................................................",
"................................................................",
"................................................................",
"...        ..............             ..............        ...."
};
