/* XPM */
static char *_024bd53a64149cce7c2cb09e9d81792pvFyEHy0G3SmIR4R[] = {
/* columns rows colors chars-per-pixel */
"32 32 2 1 ",
"  c #22B14C",
". c #A8E61D",
/* pixels */
"                                ",
"  ..                       ..   ",
"................................",
"................................",
"    ....     .....     ....     ",
"                                ",
"                                ",
"                                ",
"      ........   ........       ",
"................................",
"................................",
"...         ... ...         ... ",
"                                ",
"       ..             ..        ",
".............     ..............",
".............     ..............",
".............     ..............",
"       ..             ..        ",
"                                ",
"...         ... ...         ... ",
"................................",
"................................",
"      ........   ........       ",
"                                ",
"                                ",
"                                ",
"    ....     .....     ....     ",
"................................",
"................................",
"  ..                       ..   ",
"                                ",
"                                "
};
