/* XPM */
static char *a6280252cb204f3889e215cfc16d0ec2RKydeViOkjDpcN12[] = {
/* columns rows colors chars-per-pixel */
"8 8 2 1 ",
"  c #22B14C",
". c #A8E61D",
/* pixels */
"...  ...",
"   ..   ",
".      .",
" ..  .. ",
" ..  .. ",
".      .",
"   ..   ",
"...  ..."
};
