/* XPM */
static char *f40f3cb5c3814736b6387f65f4a4c7f253QwcJW6yOHmNORZ[] = {
/* columns rows colors chars-per-pixel */
"64 64 2 1 ",
"  c #105C25",
". c #22B14C",
/* pixels */
"................................................................",
"................................................................",
"................................................................",
"..............        ...................        .............. ",
"                                                                ",
"                                                                ",
"                                                                ",
"                                                                ",
"...................     ...............     ....................",
"................................................................",
"................................................................",
"................................................................",
"............................       .............................",
"   .         ....                             ....         .    ",
"                                                                ",
"                                                                ",
"                                                                ",
"       ...                ...........                ...       .",
"................................................................",
"................................................................",
"................................................................",
"................................................................",
".....................      .........      ......................",
"           ....                                 ....            ",
"                                                                ",
"                                                                ",
"                                                                ",
"........          ...........................          .........",
"................................................................",
"................................................................",
"................................................................",
"................................................................",
"................................................................",
"................................................................",
"................................................................",
"........          ...........................          .........",
"                                                                ",
"                                                                ",
"                                                                ",
"           ....                                 ....            ",
".....................      .........      ......................",
"................................................................",
"................................................................",
"................................................................",
"................................................................",
"       ...                ...........                ...       .",
"                                                                ",
"                                                                ",
"                                                                ",
"   .         ....                             ....         .    ",
"............................       .............................",
"................................................................",
"................................................................",
"................................................................",
"...................     ...............     ....................",
"                                                                ",
"                                                                ",
"                                                                ",
"                                                                ",
"..............        ...................        .............. ",
"................................................................",
"................................................................",
"................................................................",
"...        ..............             ..............        ...."
};
