/* XPM */
static char *_9d79ff4451f4d66c213cc748afe8c31Aq8Cjg72lGoAO9XF[] = {
/* columns rows colors chars-per-pixel */
"64 64 2 1 ",
"  c #990030",
". c #ED1C24",
/* pixels */
"................................................................",
"................................................................",
"................................................................",
".......                                                  .......",
"........                                                ........",
"........                                                ........",
".........                                              .........",
"..........                                            ..........",
"...........                                          ...........",
"............                                        ............",
".............                                      .............",
"... ..........                                    .......... ...",
"...    ........                                  ........    ...",
"...     ........                                ........     ...",
"...      ........                              ........      ...",
"...       ........                            ........       ...",
"...        ........                          ........        ...",
"...         ........                        ........         ...",
"...          ........                      ........          ...",
"...           ........                    ........           ...",
"...            ........                  ........            ...",
"...             ........                ........             ...",
"...              ........              ........              ...",
"...               ........            ........               ...",
"...                ........          ........                ...",
"...                 ........... ............                 ...",
"...                  .......... ...........                  ...",
"...                   ......... ..........                   ...",
"...                    ..................                    ...",
"...                     ................                     ...",
"...                      ..............                      ...",
"...                       ...........                        ...",
"...                      ..............                      ...",
"...                      ..............                      ...",
"...                     ................                     ...",
"...                    ........ .........                    ...",
"...                   ......... ..........                   ...",
"...                  .......... ...........                  ...",
"...                 .......         ........                 ...",
"...                .......           ........                ...",
"...               .......             ........               ...",
"...              .......               ........              ...",
"...             .......                 ........             ...",
"...            .......                   ........            ...",
"...           .......                     ........           ...",
"...          .......                       ........          ...",
"...         .......                         ........         ...",
"...        .......                           ........        ...",
"...       .......                             ........       ...",
"...      .......                               ........      ...",
"...     .......                                 ........     ...",
"...    .......                                   ........    ...",
"... .........                                     .......... ...",
"............                                       .............",
"...........                                         ............",
"..........                                           ...........",
".........                                             ..........",
"........                                               .........",
"........                                                ........",
".......                                                 ........",
".......                                                  .......",
"................................................................",
"................................................................",
"................................................................"
};
