/* XPM */
static char *c9f1866609d84dda99818bb20425e72348NAII30wBCp1w1o[] = {
/* columns rows colors chars-per-pixel */
"32 32 2 1 ",
"  c #990030",
". c #ED1C24",
/* pixels */
"................................",
"................................",
"................................",
"................................",
"........                ........",
".........              .........",
"..........            ..........",
"...........          ...........",
".... .......        ....... ....",
"....  .......      .......  ....",
"....   .......    .......   ....",
"....    .......  .......    ....",
"....     ..............     ....",
"....      ............      ....",
"....       ...    ...       ....",
"....        ..    ..        ....",
"....        ..    ..        ....",
"....       ...    ...       ....",
"....      ............      ....",
"....     ..............     ....",
"....    .......  .......    ....",
"....   .......    .......   ....",
"....  .......      .......  ....",
".... .......        ....... ....",
"...........          ...........",
"..........            ..........",
".........              .........",
"........                ........",
"................................",
"................................",
"................................",
"................................"
};
